<mxfile host="app.diagrams.net" modified="2023-05-13T17:17:44.684Z" agent="Mozilla/5.0 (Windows NT 10.0; Win64; x64; rv:109.0) Gecko/20100101 Firefox/113.0" etag="hhWVySfN57bbfLtqZ4d6" version="21.3.0" type="github">
  <diagram name="Strona-1" id="wXGseTI9oVmT1-ub9HhJ">
    <mxGraphModel dx="1114" dy="602" grid="1" gridSize="10" guides="1" tooltips="1" connect="1" arrows="1" fold="1" page="1" pageScale="1" pageWidth="827" pageHeight="1169" math="0" shadow="0">
      <root>
        <mxCell id="0" />
        <mxCell id="1" parent="0" />
        <mxCell id="gA7AlXMPf7PaIZV02rb5-1" value="System wypożyczeń online" style="shape=umlFrame;whiteSpace=wrap;html=1;pointerEvents=0;width=90;height=50;" vertex="1" parent="1">
          <mxGeometry x="120" y="280" width="670" height="620" as="geometry" />
        </mxCell>
        <mxCell id="gA7AlXMPf7PaIZV02rb5-2" style="rounded=0;orthogonalLoop=1;jettySize=auto;html=1;endArrow=none;endFill=0;" edge="1" parent="1" source="gA7AlXMPf7PaIZV02rb5-4" target="gA7AlXMPf7PaIZV02rb5-5">
          <mxGeometry relative="1" as="geometry" />
        </mxCell>
        <mxCell id="gA7AlXMPf7PaIZV02rb5-3" style="rounded=0;orthogonalLoop=1;jettySize=auto;html=1;entryX=0;entryY=0.5;entryDx=0;entryDy=0;endArrow=none;endFill=0;" edge="1" parent="1" source="gA7AlXMPf7PaIZV02rb5-4" target="gA7AlXMPf7PaIZV02rb5-12">
          <mxGeometry relative="1" as="geometry" />
        </mxCell>
        <mxCell id="gA7AlXMPf7PaIZV02rb5-4" value="&lt;div&gt;Czytelnik&lt;/div&gt;&lt;div&gt;&lt;br&gt;&lt;/div&gt;" style="shape=umlActor;verticalLabelPosition=bottom;verticalAlign=top;html=1;" vertex="1" parent="1">
          <mxGeometry x="30" y="500" width="30" height="60" as="geometry" />
        </mxCell>
        <mxCell id="gA7AlXMPf7PaIZV02rb5-5" value="Wyszukaj książkę" style="ellipse;whiteSpace=wrap;html=1;" vertex="1" parent="1">
          <mxGeometry x="160" y="360" width="140" height="70" as="geometry" />
        </mxCell>
        <mxCell id="gA7AlXMPf7PaIZV02rb5-6" style="rounded=0;orthogonalLoop=1;jettySize=auto;html=1;dashed=1;endArrow=open;endFill=0;strokeWidth=1.5;" edge="1" parent="1" source="gA7AlXMPf7PaIZV02rb5-8" target="gA7AlXMPf7PaIZV02rb5-5">
          <mxGeometry relative="1" as="geometry" />
        </mxCell>
        <mxCell id="gA7AlXMPf7PaIZV02rb5-7" value="&amp;lt;&amp;lt;extends&amp;gt;&amp;gt;" style="edgeLabel;html=1;align=center;verticalAlign=middle;resizable=0;points=[];" vertex="1" connectable="0" parent="gA7AlXMPf7PaIZV02rb5-6">
          <mxGeometry x="0.3555" relative="1" as="geometry">
            <mxPoint x="2" y="7" as="offset" />
          </mxGeometry>
        </mxCell>
        <mxCell id="gA7AlXMPf7PaIZV02rb5-8" value="Rezerwuj książkę" style="ellipse;whiteSpace=wrap;html=1;" vertex="1" parent="1">
          <mxGeometry x="170" y="520" width="140" height="70" as="geometry" />
        </mxCell>
        <mxCell id="gA7AlXMPf7PaIZV02rb5-9" value="Autoryzuj użytkownika" style="ellipse;whiteSpace=wrap;html=1;fontFamily=Helvetica;fontSize=11;fontColor=default;" vertex="1" parent="1">
          <mxGeometry x="450" y="530" width="120" height="60" as="geometry" />
        </mxCell>
        <mxCell id="gA7AlXMPf7PaIZV02rb5-10" style="edgeStyle=none;shape=connector;rounded=0;orthogonalLoop=1;jettySize=auto;html=1;entryX=1;entryY=0.5;entryDx=0;entryDy=0;labelBackgroundColor=default;strokeColor=default;fontFamily=Helvetica;fontSize=11;fontColor=default;endArrow=none;endFill=0;" edge="1" parent="1" source="gA7AlXMPf7PaIZV02rb5-11" target="gA7AlXMPf7PaIZV02rb5-15">
          <mxGeometry relative="1" as="geometry" />
        </mxCell>
        <mxCell id="gA7AlXMPf7PaIZV02rb5-11" value="Bibliotekarz" style="shape=umlActor;verticalLabelPosition=bottom;verticalAlign=top;html=1;fontFamily=Helvetica;fontSize=11;fontColor=default;" vertex="1" parent="1">
          <mxGeometry x="830" y="440" width="30" height="60" as="geometry" />
        </mxCell>
        <mxCell id="gA7AlXMPf7PaIZV02rb5-12" value="Zarządzaj kartą biblioteczną" style="ellipse;whiteSpace=wrap;html=1;fontFamily=Helvetica;fontSize=11;fontColor=default;" vertex="1" parent="1">
          <mxGeometry x="280" y="640" width="120" height="60" as="geometry" />
        </mxCell>
        <mxCell id="gA7AlXMPf7PaIZV02rb5-13" style="rounded=0;orthogonalLoop=1;jettySize=auto;html=1;endArrow=open;endFill=0;dashed=1;strokeWidth=1.5;entryX=0.5;entryY=0;entryDx=0;entryDy=0;" edge="1" parent="1" source="gA7AlXMPf7PaIZV02rb5-15" target="gA7AlXMPf7PaIZV02rb5-9">
          <mxGeometry relative="1" as="geometry">
            <mxPoint x="390" y="630" as="targetPoint" />
          </mxGeometry>
        </mxCell>
        <mxCell id="gA7AlXMPf7PaIZV02rb5-14" value="&amp;lt;&amp;lt;include&amp;gt;&amp;gt;" style="edgeLabel;html=1;align=center;verticalAlign=middle;resizable=0;points=[];" vertex="1" connectable="0" parent="gA7AlXMPf7PaIZV02rb5-13">
          <mxGeometry x="0.2852" y="-2" relative="1" as="geometry">
            <mxPoint x="13" y="-12" as="offset" />
          </mxGeometry>
        </mxCell>
        <mxCell id="gA7AlXMPf7PaIZV02rb5-15" value="Zarządzaj książkami" style="ellipse;whiteSpace=wrap;html=1;fontFamily=Helvetica;fontSize=11;fontColor=default;" vertex="1" parent="1">
          <mxGeometry x="570" y="380" width="140" height="70" as="geometry" />
        </mxCell>
        <mxCell id="gA7AlXMPf7PaIZV02rb5-16" value="Zarządzaj płatnością" style="ellipse;whiteSpace=wrap;html=1;fontFamily=Helvetica;fontSize=11;fontColor=default;" vertex="1" parent="1">
          <mxGeometry x="200" y="760" width="140" height="70" as="geometry" />
        </mxCell>
        <mxCell id="gA7AlXMPf7PaIZV02rb5-17" style="edgeStyle=none;shape=connector;rounded=0;orthogonalLoop=1;jettySize=auto;html=1;labelBackgroundColor=default;strokeColor=default;fontFamily=Helvetica;fontSize=11;fontColor=default;endArrow=none;endFill=0;" edge="1" parent="1" source="gA7AlXMPf7PaIZV02rb5-18" target="gA7AlXMPf7PaIZV02rb5-16">
          <mxGeometry relative="1" as="geometry" />
        </mxCell>
        <mxCell id="gA7AlXMPf7PaIZV02rb5-18" value="System płatności" style="shape=umlActor;verticalLabelPosition=bottom;verticalAlign=top;html=1;fontFamily=Helvetica;fontSize=11;fontColor=default;" vertex="1" parent="1">
          <mxGeometry x="50" y="765" width="30" height="60" as="geometry" />
        </mxCell>
        <mxCell id="gA7AlXMPf7PaIZV02rb5-19" style="rounded=0;orthogonalLoop=1;jettySize=auto;html=1;endArrow=open;endFill=0;dashed=1;strokeWidth=1.5;entryX=0;entryY=0.5;entryDx=0;entryDy=0;exitX=1;exitY=0.5;exitDx=0;exitDy=0;" edge="1" parent="1" source="gA7AlXMPf7PaIZV02rb5-8" target="gA7AlXMPf7PaIZV02rb5-9">
          <mxGeometry relative="1" as="geometry">
            <mxPoint x="493" y="422" as="sourcePoint" />
            <mxPoint x="370" y="500" as="targetPoint" />
          </mxGeometry>
        </mxCell>
        <mxCell id="gA7AlXMPf7PaIZV02rb5-20" value="&amp;lt;&amp;lt;include&amp;gt;&amp;gt;" style="edgeLabel;html=1;align=center;verticalAlign=middle;resizable=0;points=[];" vertex="1" connectable="0" parent="gA7AlXMPf7PaIZV02rb5-19">
          <mxGeometry x="0.2852" y="-2" relative="1" as="geometry">
            <mxPoint x="-23" y="-3" as="offset" />
          </mxGeometry>
        </mxCell>
        <mxCell id="gA7AlXMPf7PaIZV02rb5-21" style="rounded=0;orthogonalLoop=1;jettySize=auto;html=1;dashed=1;endArrow=open;endFill=0;strokeWidth=1.5;entryX=1;entryY=0;entryDx=0;entryDy=0;exitX=0.208;exitY=0.933;exitDx=0;exitDy=0;exitPerimeter=0;" edge="1" parent="1" source="gA7AlXMPf7PaIZV02rb5-9" target="gA7AlXMPf7PaIZV02rb5-12">
          <mxGeometry relative="1" as="geometry">
            <mxPoint x="486" y="700" as="sourcePoint" />
            <mxPoint x="480" y="610" as="targetPoint" />
          </mxGeometry>
        </mxCell>
        <mxCell id="gA7AlXMPf7PaIZV02rb5-22" value="&amp;lt;&amp;lt;extends&amp;gt;&amp;gt;" style="edgeLabel;html=1;align=center;verticalAlign=middle;resizable=0;points=[];" vertex="1" connectable="0" parent="gA7AlXMPf7PaIZV02rb5-21">
          <mxGeometry x="0.3555" relative="1" as="geometry">
            <mxPoint x="15" y="-14" as="offset" />
          </mxGeometry>
        </mxCell>
        <mxCell id="gA7AlXMPf7PaIZV02rb5-23" style="rounded=0;orthogonalLoop=1;jettySize=auto;html=1;endArrow=open;endFill=0;dashed=1;strokeWidth=1.5;entryX=0.383;entryY=0.967;entryDx=0;entryDy=0;exitX=0.671;exitY=0.029;exitDx=0;exitDy=0;exitPerimeter=0;entryPerimeter=0;" edge="1" parent="1" source="gA7AlXMPf7PaIZV02rb5-16" target="gA7AlXMPf7PaIZV02rb5-12">
          <mxGeometry relative="1" as="geometry">
            <mxPoint x="340" y="760" as="sourcePoint" />
            <mxPoint x="480" y="765" as="targetPoint" />
          </mxGeometry>
        </mxCell>
        <mxCell id="gA7AlXMPf7PaIZV02rb5-24" value="&amp;lt;&amp;lt;include&amp;gt;&amp;gt;" style="edgeLabel;html=1;align=center;verticalAlign=middle;resizable=0;points=[];" vertex="1" connectable="0" parent="gA7AlXMPf7PaIZV02rb5-23">
          <mxGeometry x="0.2852" y="-2" relative="1" as="geometry">
            <mxPoint x="-11" y="6" as="offset" />
          </mxGeometry>
        </mxCell>
      </root>
    </mxGraphModel>
  </diagram>
</mxfile>
